<svg width="15" height="15" viewBox="0 0 15 15" fill="none" xmlns="http://www.w3.org/2000/svg">
<path d="M12.2524 0.363525H3.66887C2.17789 0.363525 0.964905 1.57623 0.964905 3.06721V5.9233V11.651C0.964905 13.142 2.17789 14.3547 3.66887 14.3547H12.2526C13.7436 14.3547 14.9563 13.142 14.9563 11.651V5.92301V3.06693C14.956 1.57595 13.7433 0.363525 12.2524 0.363525ZM13.0279 1.97586L13.3372 1.97473V2.28263V4.34624L10.9736 4.35386L10.9654 1.98263L13.0279 1.97586ZM5.96362 5.92301C6.41179 5.30297 7.13879 4.89629 7.96062 4.89629C8.78245 4.89629 9.50945 5.30297 9.95706 5.92301C10.2486 6.32772 10.4233 6.82274 10.4233 7.35896C10.4233 8.71673 9.31754 9.82134 7.96034 9.82134C6.60228 9.82134 5.49767 8.71673 5.49767 7.35896C5.49795 6.82274 5.67208 6.32772 5.96362 5.92301ZM13.5929 11.6507C13.5929 12.3904 12.9915 12.9913 12.2524 12.9913H3.66887C2.92945 12.9913 2.32804 12.3904 2.32804 11.6507V5.92301H4.41648C4.23614 6.36667 4.13482 6.85124 4.13482 7.35896C4.13482 9.468 5.85073 11.185 7.96062 11.185C10.0702 11.185 11.7861 9.468 11.7861 7.35896C11.7861 6.85124 11.6843 6.36667 11.5039 5.92301H13.5929V11.6507Z" fill="#1E266D"/>
</svg>
