<svg width="26" height="26" viewBox="0 0 26 26" fill="none" xmlns="http://www.w3.org/2000/svg">
<path d="M23 13H18C16.625 13 15.5 14.125 15.5 15.5V23C15.5 24.375 16.625 25.5 18 25.5H23C24.375 25.5 25.5 24.375 25.5 23V15.5C25.5 14.125 24.375 13 23 13Z" fill="white"/>
<path d="M8 0.5H3C1.625 0.5 0.5 1.625 0.5 3V10.5C0.5 11.875 1.625 13 3 13H8C9.375 13 10.5 11.875 10.5 10.5V3C10.5 1.625 9.375 0.5 8 0.5Z" fill="white"/>
<path d="M23 0.5H18C16.625 0.5 15.5 1.625 15.5 3V5.5C15.5 6.875 16.625 8 18 8H23C24.375 8 25.5 6.875 25.5 5.5V3C25.5 1.625 24.375 0.5 23 0.5Z" fill="white"/>
<path d="M8 18H3C1.625 18 0.5 19.125 0.5 20.5V23C0.5 24.375 1.625 25.5 3 25.5H8C9.375 25.5 10.5 24.375 10.5 23V20.5C10.5 19.125 9.375 18 8 18Z" fill="white"/>
</svg>
