<svg width="16" height="14" viewBox="0 0 16 14" fill="none" xmlns="http://www.w3.org/2000/svg">
<path d="M15.8991 1.59814C15.315 1.86028 14.6864 2.03711 14.0268 2.11624C14.7003 1.70919 15.2166 1.06442 15.4602 0.295254C14.8302 0.672672 14.1329 0.946535 13.3901 1.09438C12.7957 0.454818 11.9484 0.0549316 11.0107 0.0549316C9.21064 0.0549316 7.75115 1.52846 7.75115 3.34618C7.75115 3.60376 7.77986 3.85483 7.83566 4.09613C5.12633 3.95871 2.72405 2.64866 1.1162 0.657366C0.835588 1.14322 0.674964 1.70853 0.674964 2.31227C0.674964 3.45397 1.25037 4.4615 2.1251 5.05156C1.59097 5.0343 1.08814 4.88613 0.648515 4.63962C0.648193 4.6533 0.648193 4.6673 0.648193 4.68131C0.648193 6.27564 1.77192 7.60556 3.26334 7.9084C2.98983 7.9833 2.7018 8.02368 2.40442 8.02368C2.19412 8.02368 1.98996 8.00317 1.79095 7.96442C2.20606 9.27186 3.40977 10.2237 4.83604 10.2501C3.72038 11.1329 2.31508 11.6591 0.78753 11.6591C0.52466 11.6591 0.265016 11.6435 0.0098877 11.6129C1.45293 12.5472 3.16626 13.0916 5.00699 13.0916C11.0033 13.0916 14.2819 8.07676 14.2819 3.72751C14.2819 3.58487 14.279 3.44257 14.2729 3.30124C14.9096 2.83818 15.4624 2.25822 15.8991 1.59814Z" fill="#1E266D"/>
</svg>
