<svg width="29" height="40" viewBox="0 0 29 40" fill="none" xmlns="http://www.w3.org/2000/svg">
<g filter="url(#filter0_d_3_4685)">
<path d="M17.7515 10.6687C20.6496 10.6687 23 8.28125 23 5.3375C23 2.39375 20.6496 0 17.7515 0H7.24846C4.35043 0 2 2.3875 2 5.33125C2 8.275 4.35043 10.6625 7.24846 10.6625C4.35043 10.6688 2 13.0562 2 16C2 18.9438 4.35043 21.3312 7.24846 21.3312C4.35043 21.3312 2 23.7188 2 26.6688C2 29.6188 4.35043 32 7.24846 32C10.1465 32 12.4969 29.6125 12.4969 26.6688V10.6687H17.7515ZM17.7515 10.6687C14.8535 10.6687 12.5031 13.0562 12.5031 16C12.5031 18.9438 14.8535 21.3312 17.7515 21.3312C20.6496 21.3312 23 18.9438 23 16C23 13.0562 20.6496 10.6687 17.7515 10.6687Z" fill="white"/>
</g>
<defs>
<filter id="filter0_d_3_4685" x="0" y="0" width="29" height="40" filterUnits="userSpaceOnUse" color-interpolation-filters="sRGB">
<feFlood flood-opacity="0" result="BackgroundImageFix"/>
<feColorMatrix in="SourceAlpha" type="matrix" values="0 0 0 0 0 0 0 0 0 0 0 0 0 0 0 0 0 0 127 0" result="hardAlpha"/>
<feOffset dx="2" dy="4"/>
<feGaussianBlur stdDeviation="2"/>
<feColorMatrix type="matrix" values="0 0 0 0 0.270588 0 0 0 0 0.345098 0 0 0 0 0.501961 0 0 0 0.2 0"/>
<feBlend mode="normal" in2="BackgroundImageFix" result="effect1_dropShadow_3_4685"/>
<feBlend mode="normal" in="SourceGraphic" in2="effect1_dropShadow_3_4685" result="shape"/>
</filter>
</defs>
</svg>
